<?xml version="1.0" encoding="UTF-8"?>
<svg version="1.1" xmlns="http://www.w3.org/2000/svg" width="250" height="60">
<path d="M0 0 C7.32631579 -0.48842105 7.32631579 -0.48842105 10.5 1.8125 C12 4 12 4 12 7 C10.02 7.66 8.04 8.32 6 9 C6.33 12.63 6.66 16.26 7 20 C8.65 20.33 10.3 20.66 12 21 C12.33 18.36 12.66 15.72 13 13 C13.86625 13.185625 14.7325 13.37125 15.625 13.5625 C19.05152628 14.00667933 21.64212371 13.71954492 25 13 C25 14.32 25 15.64 25 17 C24.01 17.495 24.01 17.495 23 18 C22.27840576 19.64363134 21.60648579 21.31050386 21 23 C19.2984375 23.2165625 19.2984375 23.2165625 17.5625 23.4375 C14.19222799 23.61171478 14.19222799 23.61171478 13 25 C11.00041636 25.04080783 8.99954746 25.04254356 7 25 C7.00785522 25.90093384 7.00785522 25.90093384 7.01586914 26.82006836 C7.03658014 29.52586838 7.04964125 32.23165177 7.0625 34.9375 C7.07087891 35.88302734 7.07925781 36.82855469 7.08789062 37.80273438 C7.09272461 39.15141602 7.09272461 39.15141602 7.09765625 40.52734375 C7.10551147 41.77632446 7.10551147 41.77632446 7.11352539 43.05053711 C7 45 7 45 6 46 C3.19660365 46.12689057 0.42882157 46.1852093 -2.375 46.1875 C-3.15617187 46.19974609 -3.93734375 46.21199219 -4.7421875 46.22460938 C-8.67635523 46.23471426 -10.65592449 46.22938367 -14 44 C-14.80859375 41.9765625 -14.80859375 41.9765625 -15.4375 39.625 C-16.59484235 35.80207659 -17.7936704 33.54295106 -21 31 C-20.34 29.68 -19.68 28.36 -19 27 C-18.01 27 -17.02 27 -16 27 C-16.09539063 26.19175781 -16.19078125 25.38351563 -16.2890625 24.55078125 C-16.39992188 23.48214844 -16.51078125 22.41351562 -16.625 21.3125 C-16.74101562 20.25675781 -16.85703125 19.20101563 -16.9765625 18.11328125 C-17.01267647 13.31614184 -15.33203021 9.46018522 -12 6 C-10.68 6 -9.36 6 -8 6 C-8 6.66 -8 7.32 -8 8 C-7.34 8 -6.68 8 -6 8 C-5.67 7.01 -5.34 6.02 -5 5 C-0.25 5.875 -0.25 5.875 2 7 C1.34 4.69 0.68 2.38 0 0 Z " fill="#030608" transform="translate(32,5)"/>
<path d="M0 0 C0.33 11.22 0.66 22.44 1 34 C-4.61 34 -10.22 34 -16 34 C-16.33 31.69 -16.66 29.38 -17 27 C-18.91621575 24.579887 -18.91621575 24.579887 -21 23 C-20.01 22.5359375 -20.01 22.5359375 -19 22.0625 C-16.55823502 19.54442986 -16.72857594 18.71892628 -16.75 15.3125 C-16.81423833 13.8740202 -16.89163547 12.43583001 -17 11 C-15.68 10.67 -14.36 10.34 -13 10 C-13.33 9.01 -13.66 8.02 -14 7 C-14.33 6.01 -14.66 5.02 -15 4 C-12.73625389 1.73625389 -11.68987631 1.51648574 -8.625 0.875 C-7.46871094 0.62363281 -7.46871094 0.62363281 -6.2890625 0.3671875 C-4 0 -4 0 0 0 Z " fill="#2291C5" transform="translate(35,14)"/>
<path d="M0 0 C2.375 -0.125 2.375 -0.125 5 0 C7.35953094 2.35953094 7.49141413 3.77895617 8 7 C9.3303125 6.690625 9.3303125 6.690625 10.6875 6.375 C14.33119345 5.9625064 15.87104763 6.13954183 19 8 C22.91897515 13.35782593 22.82501158 18.58620032 22 25 C20.19196596 28.07365786 19.13960536 29.43019732 16 31 C14.37834248 31.12148305 12.75115673 31.17543652 11.125 31.1875 C9.82949219 31.20876953 9.82949219 31.20876953 8.5078125 31.23046875 C5.78224515 30.97998826 4.25314271 30.54598753 2 29 C-0.12643434 25.693838 -0.23491837 23.02199999 -0.1953125 19.140625 C-0.18886719 18.02558594 -0.18242187 16.91054688 -0.17578125 15.76171875 C-0.15902344 14.60285156 -0.14226562 13.44398437 -0.125 12.25 C-0.11597656 11.07566406 -0.10695312 9.90132812 -0.09765625 8.69140625 C-0.07410063 5.79406464 -0.04120652 2.89713559 0 0 Z M9 13 C6.84294485 14.7564331 6.84294485 14.7564331 6.734375 16.875 C6.73953125 17.57625 6.7446875 18.2775 6.75 19 C6.74484375 19.70125 6.7396875 20.4025 6.734375 21.125 C6.84294485 23.2435669 6.84294485 23.2435669 9 25 C12.30683466 24.71016731 12.30683466 24.71016731 15 23 C15.22918242 18.98342857 15.22918242 18.98342857 15 15 C14.34 14.34 13.68 13.68 13 13 C11.68 13 10.36 13 9 13 Z " fill="#030405" transform="translate(142,18)"/>
<path d="M0 0 C1.65 0 3.3 0 5 0 C7.49505962 2.49505962 7.35948376 3.67328888 7.625 7.125 C7.69976562 8.03507812 7.77453125 8.94515625 7.8515625 9.8828125 C7.90054688 10.58148438 7.94953125 11.28015625 8 12 C8.7115625 11.01 8.7115625 11.01 9.4375 10 C13.14875563 7.10341024 16.45397207 7.65030554 21 8 C20.57847656 8.48210938 20.15695313 8.96421875 19.72265625 9.4609375 C19.17480469 10.09257812 18.62695312 10.72421875 18.0625 11.375 C17.24458984 12.31472656 17.24458984 12.31472656 16.41015625 13.2734375 C14.93041376 14.95632334 14.93041376 14.95632334 14 17 C15.06551091 19.04392283 16.2277558 21.03799771 17.4375 23 C21 28.80039139 21 28.80039139 21 31 C15.80310881 31.70466321 15.80310881 31.70466321 13 31 C10.78043995 28.59591596 9.37246019 25.95606811 8 23 C7.67 25.64 7.34 28.28 7 31 C4.69 31 2.38 31 0 31 C0 20.77 0 10.54 0 0 Z " fill="#030405" transform="translate(213,18)"/>
<path d="M0 0 C2.38312703 1.89428046 3.6500559 3.30011179 5 6 C5.13415472 8.6723621 5.04318541 11.32250488 5 14 C0.38 14.33 -4.24 14.66 -9 15 C-8.67 15.66 -8.34 16.32 -8 17 C-1.565 16.505 -1.565 16.505 5 16 C2.60479042 21.98802395 2.60479042 21.98802395 -1 24 C-4.40294484 24.66398924 -7.58723519 24.5964055 -11 24 C-13.87092419 21.89074958 -15.40125404 20.38172144 -16.8125 17.125 C-17.3404909 11.14110311 -17.16952221 7.24190212 -14 2 C-10.07026732 -1.92973268 -5.10719201 -1.38429024 0 0 Z M-7 5 C-7.66 6.32 -8.32 7.64 -9 9 C-6.69 9 -4.38 9 -2 9 C-2.66 7.68 -3.32 6.36 -4 5 C-4.99 5 -5.98 5 -7 5 Z " fill="#1C9CD9" transform="translate(135,25)"/>
<path d="M0 0 C3.00288406 2.04451681 4.586266 3.54648713 5.59375 7.0859375 C6.34725132 12.10357127 5.98990133 16.2621397 4 21 C0.942022 23.9342845 -1.31254318 24.431748 -5.5 24.4375 C-9.18984018 24.34402405 -10.57268563 24.30522455 -13.625 22.125 C-15.91617971 18.5840859 -16.18747466 16.41317064 -16.25 12.1875 C-16.27578125 11.14980469 -16.3015625 10.11210938 -16.328125 9.04296875 C-15.95634949 5.59519345 -15.04381036 3.77268731 -13 1 C-8.82950529 -1.62145382 -4.58893995 -1.39985845 0 0 Z M-9 7 C-9.19941868 9.06772734 -9.19941868 9.06772734 -9.1875 11.4375 C-9.20167969 12.24058594 -9.21585937 13.04367188 -9.23046875 13.87109375 C-9.20162356 16.21630633 -9.20162356 16.21630633 -7 18 C-4.21762345 17.59471099 -4.21762345 17.59471099 -2 16 C-1.9020943 14.50261876 -1.87025136 13.00057108 -1.875 11.5 C-1.87113281 10.27796875 -1.87113281 10.27796875 -1.8671875 9.03125 C-1.7754822 7.00469623 -1.7754822 7.00469623 -3 6 C-6.28894893 5.59371033 -6.28894893 5.59371033 -9 7 Z " fill="#1C9CD9" transform="translate(89,25)"/>
<path d="M0 0 C3.00288406 2.04451681 4.586266 3.54648713 5.59375 7.0859375 C6.34725132 12.10357127 5.98990133 16.2621397 4 21 C1.04698092 23.79656774 -0.97139262 24.39233521 -5 24.3125 C-5.845625 24.30863281 -6.69125 24.30476563 -7.5625 24.30078125 C-10.21022203 23.97405914 -11.79406115 23.49756625 -14 22 C-16.23747567 18.81070929 -16.29801909 15.89028649 -16.3125 12.0625 C-16.32925781 11.04285156 -16.34601563 10.02320313 -16.36328125 8.97265625 C-15.94963987 5.58791337 -15.00326464 3.73392396 -13 1 C-8.82950529 -1.62145382 -4.58893995 -1.39985845 0 0 Z M-8 6 C-9.11445498 8.22890995 -9.16480286 9.53055106 -9.1875 12 C-9.20167969 12.70125 -9.21585938 13.4025 -9.23046875 14.125 C-9.16512323 16.24524938 -9.16512323 16.24524938 -7 18 C-4.9254644 18.1490712 -4.9254644 18.1490712 -3 17 C-1.2841247 13.56824941 -0.74631458 11.83353781 -1.875 8.125 C-2.24625 7.42375 -2.6175 6.7225 -3 6 C-4.65 6 -6.3 6 -8 6 Z " fill="#030405" transform="translate(182,25)"/>
<path d="M0 0 C2.93087207 2.25451698 3.82814288 3.48442865 5 7 C5.40813605 11.63077438 5.56808336 15.70152375 3.6875 20 C1.61081467 22.46125669 -0.08060204 23.85196135 -3.3046875 24.37109375 C-10.27022519 24.55105445 -10.27022519 24.55105445 -14.0625 21.6875 C-17.42773378 17.01959509 -17.56823723 12.57460318 -17 7 C-15.47552205 3.74316075 -13.81793359 0.76912575 -10.375 -0.6875 C-6.80115632 -1.15774259 -3.48628014 -0.93778788 0 0 Z M-8 6 C-10.31332486 9.46998729 -10.33957563 10.92509248 -10 15 C-9.01 16.485 -9.01 16.485 -8 18 C-5.52733235 17.65555119 -5.52733235 17.65555119 -3 17 C-1.49337903 13.98675805 -1.82229627 11.31713623 -2 8 C-2.66 7.34 -3.32 6.68 -4 6 C-5.32 6 -6.64 6 -8 6 Z " fill="#030405" transform="translate(206,25)"/>
<path d="M0 0 C2.44419559 1.94754398 2.98451948 2.95355845 4 6 C4.08021999 7.40824893 4.10765977 8.81997231 4.09765625 10.23046875 C4.09443359 11.03291016 4.09121094 11.83535156 4.08789062 12.66210938 C4.07951172 13.49548828 4.07113281 14.32886719 4.0625 15.1875 C4.05798828 16.03248047 4.05347656 16.87746094 4.04882812 17.74804688 C4.03705403 19.83206155 4.0191189 21.91603977 4 24 C1.69 23.67 -0.62 23.34 -3 23 C-3.33 17.72 -3.66 12.44 -4 7 C-5.65 7 -7.3 7 -9 7 C-9.33 12.61 -9.66 18.22 -10 24 C-12.31 24 -14.62 24 -17 24 C-17.08144943 21.29105233 -17.14070614 18.58458737 -17.1875 15.875 C-17.21263672 15.11445312 -17.23777344 14.35390625 -17.26367188 13.5703125 C-17.32768724 8.61979122 -16.74514228 5.29300564 -14 1 C-9.83801197 -1.81546249 -4.69742627 -1.31070508 0 0 Z " fill="#1C9CD9" transform="translate(113,25)"/>
<path d="M0 0 C2 2 2 2 2.3125 5.4375 C2 9 2 9 0.6875 10.625 C0.130625 11.07875 -0.42625 11.5325 -1 12 C-1.474375 12.886875 -1.94875 13.77375 -2.4375 14.6875 C-2.953125 15.450625 -3.46875 16.21375 -4 17 C-5.32 17 -6.64 17 -8 17 C-8.33 17.99 -8.66 18.98 -9 20 C-7.02 20.33 -5.04 20.66 -3 21 C-3.639375 21.103125 -4.27875 21.20625 -4.9375 21.3125 C-5.618125 21.539375 -6.29875 21.76625 -7 22 C-7.33 22.99 -7.66 23.98 -8 25 C-11.375 24.6875 -11.375 24.6875 -15 24 C-15.66 23.01 -16.32 22.02 -17 21 C-16.01 20.5359375 -16.01 20.5359375 -15 20.0625 C-12.55823502 17.54442986 -12.72857594 16.71892628 -12.75 13.3125 C-12.81423833 11.8740202 -12.89163547 10.43583001 -13 9 C-11.68 8.67 -10.36 8.34 -9 8 C-9.33 7.01 -9.66 6.02 -10 5 C-10.33 4.01 -10.66 3.02 -11 2 C-7.56671902 -1.43328098 -4.55054266 -1.31726235 0 0 Z " fill="#4599C1" transform="translate(31,16)"/>
<path d="M0 0 C0 1.98 0 3.96 0 6 C-0.99 6 -1.98 6 -3 6 C-3 6.66 -3 7.32 -3 8 C-2.01 8 -1.02 8 0 8 C-0.33 9.65 -0.66 11.3 -1 13 C-1.66 13 -2.32 13 -3 13 C-3 18.94 -3 24.88 -3 31 C-5.31 31 -7.62 31 -10 31 C-10.07421454 27.06739056 -10.12863136 23.13505278 -10.16479492 19.2019043 C-10.18728333 17.20672299 -10.22540198 15.21173787 -10.26367188 13.21679688 C-10.27333984 11.96318359 -10.28300781 10.70957031 -10.29296875 9.41796875 C-10.3086792 8.26063232 -10.32438965 7.1032959 -10.34057617 5.91088867 C-10 3 -10 3 -8.7121582 1.1105957 C-5.94004746 -0.68754087 -3.20200513 -0.18124557 0 0 Z " fill="#1C9CD9" transform="translate(72,18)"/>
<path d="M0 0 C0.33 0 0.66 0 1 0 C1.33 3.63 1.66 7.26 2 11 C3.65 11.33 5.3 11.66 7 12 C7.33 9.36 7.66 6.72 8 4 C8.86625 4.185625 9.7325 4.37125 10.625 4.5625 C14.05152628 5.00667933 16.64212371 4.71954492 20 4 C20 5.32 20 6.64 20 8 C19.01 8.495 19.01 8.495 18 9 C17.27840576 10.64363134 16.60648579 12.31050386 16 14 C14.2984375 14.2165625 14.2984375 14.2165625 12.5625 14.4375 C9.19222799 14.61171478 9.19222799 14.61171478 8 16 C6.02 16 4.04 16 2 16 C2 22.6 2 29.2 2 36 C1.34 36 0.68 36 0 36 C-0.68300088 28.30404362 -1.10481283 20.66161471 -1.125 12.9375 C-1.12951172 12.22408447 -1.13402344 11.51066895 -1.13867188 10.77563477 C-1.1281031 7.05850829 -0.88757538 3.61369978 0 0 Z " fill="#0E3F58" transform="translate(37,14)"/>
<path d="M0 0 C2.475 0.495 2.475 0.495 5 1 C5.33 1.99 5.66 2.98 6 4 C2.37 4.99 -1.26 5.98 -5 7 C-5 9.62113708 -4.68707555 11.50935112 -4 14 C-5.65 14.33 -7.3 14.66 -9 15 C-8.67 18.3 -8.34 21.6 -8 25 C-8.99 25.66 -9.98 26.32 -11 27 C-11 27.99 -11 28.98 -11 30 C-12.9375 29.1875 -12.9375 29.1875 -15 28 C-15.33 27.01 -15.66 26.02 -16 25 C-15.01 23.515 -15.01 23.515 -14 22 C-13.01 22 -12.02 22 -11 22 C-11.09539063 21.19175781 -11.19078125 20.38351563 -11.2890625 19.55078125 C-11.39992188 18.48214844 -11.51078125 17.41351562 -11.625 16.3125 C-11.74101562 15.25675781 -11.85703125 14.20101563 -11.9765625 13.11328125 C-12.01267647 8.31614184 -10.33203021 4.46018522 -7 1 C-5.68 1 -4.36 1 -3 1 C-3 1.66 -3 2.32 -3 3 C-2.34 3 -1.68 3 -1 3 C-0.67 2.01 -0.34 1.02 0 0 Z " fill="#515557" transform="translate(27,10)"/>
<path d="M0 0 C2 2 2 2 2.25 5.5 C2 9 2 9 0 11 C-2.625 11.125 -2.625 11.125 -5 11 C-5 10.34 -5 9.68 -5 9 C-6.98 9.33 -8.96 9.66 -11 10 C-10.67 9.34 -10.34 8.68 -10 8 C-9.84188612 4.94729537 -9.84188612 4.94729537 -11 2 C-7.56671902 -1.43328098 -4.55054266 -1.31726235 0 0 Z " fill="#BBC6CC" transform="translate(31,16)"/>
<path d="M0 0 C1.77006262 3.54012525 1.22716358 7.60068119 1.25 11.5 C1.270625 12.38042969 1.29125 13.26085938 1.3125 14.16796875 C1.31765625 15.00972656 1.3228125 15.85148437 1.328125 16.71875 C1.34214355 17.87793945 1.34214355 17.87793945 1.35644531 19.06054688 C1.23881836 19.70056641 1.12119141 20.34058594 1 21 C0.01 21.66 -0.98 22.32 -2 23 C-2 23.99 -2 24.98 -2 26 C-3.9375 25.1875 -3.9375 25.1875 -6 24 C-6.33 23.01 -6.66 22.02 -7 21 C-6.01 19.515 -6.01 19.515 -5 18 C-4.01 18 -3.02 18 -2 18 C-2.09539063 17.19175781 -2.19078125 16.38351563 -2.2890625 15.55078125 C-2.39992188 14.48214844 -2.51078125 13.41351563 -2.625 12.3125 C-2.74101562 11.25675781 -2.85703125 10.20101563 -2.9765625 9.11328125 C-3.00118431 5.84268391 -2.45333736 3.90144689 -1 1 C-0.67 0.67 -0.34 0.34 0 0 Z " fill="#081319" transform="translate(18,14)"/>
<path d="M0 0 C0.86625 0.185625 1.7325 0.37125 2.625 0.5625 C6.05152628 1.00667933 8.64212371 0.71954492 12 0 C12 1.32 12 2.64 12 4 C10.68 4 9.36 4 8 4 C7.67 5.65 7.34 7.3 7 9 C5.02 9 3.04 9 1 9 C0.67 6.03 0.34 3.06 0 0 Z " fill="#A4A3A4" transform="translate(45,18)"/>
<path d="M0 0 C7.32631579 -0.48842105 7.32631579 -0.48842105 10.5 1.8125 C12 4 12 4 12 7 C6.75313808 9.14644351 6.75313808 9.14644351 3.75 8.5625 C1.08038484 6.17891503 0.75744814 3.40851662 0 0 Z " fill="#1C9CD9" transform="translate(32,5)"/>
<path d="M0 0 C0.66 0 1.32 0 2 0 C2 1.32 2 2.64 2 4 C4.97 4.495 4.97 4.495 8 5 C7.360625 5.103125 6.72125 5.20625 6.0625 5.3125 C5.381875 5.539375 4.70125 5.76625 4 6 C3.67 6.99 3.34 7.98 3 9 C-0.375 8.6875 -0.375 8.6875 -4 8 C-4.66 7.01 -5.32 6.02 -6 5 C-5.195625 4.54625 -4.39125 4.0925 -3.5625 3.625 C-0.91143428 2.25274335 -0.91143428 2.25274335 0 0 Z " fill="#E0DFE0" transform="translate(20,32)"/>
<path d="M0 0 C1.32 0.66 2.64 1.32 4 2 C4.125 5.375 4.125 5.375 4 9 C2 11 2 11 -0.625 11.125 C-1.40875 11.08375 -2.1925 11.0425 -3 11 C-3 10.34 -3 9.68 -3 9 C-1.68 9 -0.36 9 1 9 C0.67 8.236875 0.34 7.47375 0 6.6875 C-1 4 -1 4 -1 1 C-0.67 0.67 -0.34 0.34 0 0 Z " fill="#F2F5F7" transform="translate(29,16)"/>
<path d="M0 0 C0.66 0.33 1.32 0.66 2 1 C1.34 2.65 0.68 4.3 0 6 C-1.7015625 6.2165625 -1.7015625 6.2165625 -3.4375 6.4375 C-6.80777201 6.61171478 -6.80777201 6.61171478 -8 8 C-9.99958364 8.04080783 -12.00045254 8.04254356 -14 8 C-14.33 7.01 -14.66 6.02 -15 5 C-14.05125 4.896875 -13.1025 4.79375 -12.125 4.6875 C-8.70892499 4.31460705 -8.70892499 4.31460705 -7 1 C-7 2.32 -7 3.64 -7 5 C-5.02 4.67 -3.04 4.34 -1 4 C-0.67 2.68 -0.34 1.36 0 0 Z " fill="#5F6061" transform="translate(53,22)"/>
<path d="M0 0 C3 3.625 3 3.625 3 7 C3.3062434 8.33981486 3.63451555 9.67511887 4 11 C2.35 11.33 0.7 11.66 -1 12 C-1.02712066 10.56260487 -1.04645067 9.12506137 -1.0625 7.6875 C-1.07410156 6.88699219 -1.08570312 6.08648437 -1.09765625 5.26171875 C-1 3 -1 3 0 0 Z " fill="#4C8AA8" transform="translate(19,13)"/>
<path d="M0 0 C0.33 0 0.66 0 1 0 C1.06058594 0.77085938 1.12117188 1.54171875 1.18359375 2.3359375 C1.26738281 3.33882812 1.35117187 4.34171875 1.4375 5.375 C1.55931641 6.87160156 1.55931641 6.87160156 1.68359375 8.3984375 C1.84965626 10.97927613 1.84965626 10.97927613 3 13 C1.02 13.99 1.02 13.99 -1 15 C-1.18451025 4.44191344 -1.18451025 4.44191344 0 0 Z " fill="#194961" transform="translate(37,14)"/>
<path d="M0 0 C1.32 0.66 2.64 1.32 4 2 C3.34 3.32 2.68 4.64 2 6 C0.68 5.67 -0.64 5.34 -2 5 C-1.125 1.125 -1.125 1.125 0 0 Z " fill="#030405" transform="translate(235,20)"/>
<path d="M0 0 C0.33 1.32 0.66 2.64 1 4 C-0.65 4.33 -2.3 4.66 -4 5 C-4.33 3.68 -4.66 2.36 -5 1 C-3.35 0.67 -1.7 0.34 0 0 Z " fill="#FCFCFC" transform="translate(27,28)"/>
<path d="M0 0 C1.65 0.33 3.3 0.66 5 1 C5.33 1.99 5.66 2.98 6 4 C4.1875 4.625 4.1875 4.625 2 5 C1.01 4.34 0.02 3.68 -1 3 C-0.67 2.01 -0.34 1.02 0 0 Z " fill="#797F82" transform="translate(27,10)"/>
<path d="M0 0 C1.65 0 3.3 0 5 0 C4.01 0.33 3.02 0.66 2 1 C2 2.32 2 3.64 2 5 C2.99 5.33 3.98 5.66 5 6 C4.01 6.495 4.01 6.495 3 7 C1.68 5.68 0.36 4.36 -1 3 C-0.67 2.01 -0.34 1.02 0 0 Z " fill="#707171" transform="translate(12,33)"/>
</svg>
